<svg xmlns="http://www.w3.org/2000/svg" viewBox="0 0 83.905 60.143">
  <defs>
    <style>
      .cls-1 {
        fill: #fff;
      }
    </style>
  </defs>
  <g id="dumbell" transform="translate(-5 -7)">
    <g id="Group_3" data-name="Group 3" transform="translate(5 7)">
      <path id="Path_24" data-name="Path 24" class="cls-1" d="M78.433,76.029H74.785a4.98,4.98,0,0,0-1.824.369V70.014A5.769,5.769,0,0,0,67.489,64H63.841a5.769,5.769,0,0,0-5.472,6.014V84.048H25.536V70.014A5.769,5.769,0,0,0,20.064,64H16.416a5.769,5.769,0,0,0-5.472,6.014V76.4a4.98,4.98,0,0,0-1.824-.369H5.472A5.769,5.769,0,0,0,0,82.043V106.1a5.769,5.769,0,0,0,5.472,6.014H9.12a4.98,4.98,0,0,0,1.824-.369v6.383a5.769,5.769,0,0,0,5.472,6.014h3.648a5.769,5.769,0,0,0,5.472-6.014V104.1H58.369v14.033a5.769,5.769,0,0,0,5.472,6.014h3.648a5.769,5.769,0,0,0,5.472-6.014v-6.383a4.98,4.98,0,0,0,1.824.369h3.648A5.769,5.769,0,0,0,83.9,106.1V82.043A5.769,5.769,0,0,0,78.433,76.029ZM10.944,106.1a1.924,1.924,0,0,1-1.824,2H5.472a1.924,1.924,0,0,1-1.824-2V82.043a1.924,1.924,0,0,1,1.824-2H9.12a1.924,1.924,0,0,1,1.824,2Zm10.944,12.029a1.924,1.924,0,0,1-1.824,2H16.416a1.924,1.924,0,0,1-1.824-2V70.014a1.924,1.924,0,0,1,1.824-2h3.648a1.924,1.924,0,0,1,1.824,2Zm36.48-18.043H25.536V88.057H58.369ZM69.313,82.043v36.086a1.924,1.924,0,0,1-1.824,2H63.841a1.924,1.924,0,0,1-1.824-2V70.014a1.924,1.924,0,0,1,1.824-2h3.648a1.924,1.924,0,0,1,1.824,2ZM80.257,106.1a1.924,1.924,0,0,1-1.824,2H74.785a1.924,1.924,0,0,1-1.824-2V82.043a1.924,1.924,0,0,1,1.824-2h3.648a1.924,1.924,0,0,1,1.824,2Z" transform="translate(0 -64)"/>
    </g>
  </g>
</svg>
