<svg xmlns="http://www.w3.org/2000/svg" viewBox="0 0 82.072 82.072">
  <defs>
    <style>
      .cls-1 {
        fill: #fff;
      }
    </style>
  </defs>
  <g id="settings" transform="translate(0)">
    <g id="Group_4" data-name="Group 4">
      <path id="Path_25" data-name="Path 25" class="cls-1" d="M77.871,32.422l-5.761-.977A32.527,32.527,0,0,0,69.8,25.855l3.395-4.749a5.055,5.055,0,0,0-.549-6.532L67.533,9.465A5.033,5.033,0,0,0,63.95,7.973a4.982,4.982,0,0,0-2.932.943l-4.766,3.395a32.189,32.189,0,0,0-5.795-2.383L49.5,4.236A5.065,5.065,0,0,0,44.491,0H37.273a5.065,5.065,0,0,0-5.006,4.235l-.994,5.829A31.726,31.726,0,0,0,25.7,12.414L20.985,9.019a5.064,5.064,0,0,0-6.532.549L9.327,14.677a5.075,5.075,0,0,0-.549,6.532l3.429,4.818a31.772,31.772,0,0,0-2.28,5.606l-5.692.96A5.065,5.065,0,0,0,0,37.6v7.218a5.065,5.065,0,0,0,4.235,5.006l5.829.994a31.726,31.726,0,0,0,2.349,5.572l-3.378,4.7a5.055,5.055,0,0,0,.549,6.532l5.109,5.109a5.033,5.033,0,0,0,3.583,1.492,4.982,4.982,0,0,0,2.932-.943l4.818-3.429a32.434,32.434,0,0,0,5.418,2.229l.96,5.761a5.065,5.065,0,0,0,5.006,4.235h7.235a5.065,5.065,0,0,0,5.006-4.235l.977-5.761a32.526,32.526,0,0,0,5.589-2.315l4.749,3.395a5.033,5.033,0,0,0,2.949.943h0A5.033,5.033,0,0,0,67.5,72.609L72.608,67.5a5.075,5.075,0,0,0,.549-6.532L69.762,56.2a32.294,32.294,0,0,0,2.315-5.589l5.761-.96a5.065,5.065,0,0,0,4.235-5.006V37.428A5,5,0,0,0,77.871,32.422Zm-.394,12.224a.444.444,0,0,1-.377.446l-7.2,1.2a2.3,2.3,0,0,0-1.852,1.7,27.446,27.446,0,0,1-2.983,7.184,2.318,2.318,0,0,0,.1,2.52L69.4,63.659a.467.467,0,0,1-.051.583l-5.109,5.109a.435.435,0,0,1-.326.137.421.421,0,0,1-.257-.086l-5.949-4.235a2.317,2.317,0,0,0-2.52-.1,27.446,27.446,0,0,1-7.184,2.983,2.276,2.276,0,0,0-1.7,1.852l-1.217,7.2a.444.444,0,0,1-.446.377H37.427a.444.444,0,0,1-.446-.377l-1.2-7.2a2.3,2.3,0,0,0-1.7-1.852,28.5,28.5,0,0,1-7.029-2.88,2.373,2.373,0,0,0-1.166-.309,2.258,2.258,0,0,0-1.337.429l-6,4.269a.51.51,0,0,1-.257.086.459.459,0,0,1-.326-.137L12.859,64.4a.465.465,0,0,1-.051-.583L17.025,57.9a2.347,2.347,0,0,0,.1-2.537,27.187,27.187,0,0,1-3.017-7.166,2.348,2.348,0,0,0-1.852-1.7L5.006,45.263a.444.444,0,0,1-.377-.446V37.6a.444.444,0,0,1,.377-.446l7.149-1.2a2.318,2.318,0,0,0,1.869-1.714,27.418,27.418,0,0,1,2.932-7.2,2.289,2.289,0,0,0-.12-2.5l-4.269-6a.467.467,0,0,1,.051-.583l5.109-5.109a.435.435,0,0,1,.326-.137.421.421,0,0,1,.257.086l5.915,4.218a2.347,2.347,0,0,0,2.537.1,27.187,27.187,0,0,1,7.166-3.017,2.348,2.348,0,0,0,1.7-1.852L36.861,4.99a.444.444,0,0,1,.446-.377h7.218a.444.444,0,0,1,.446.377l1.2,7.149a2.318,2.318,0,0,0,1.714,1.869,27.828,27.828,0,0,1,7.355,3.017,2.318,2.318,0,0,0,2.52-.1l5.915-4.252a.51.51,0,0,1,.257-.086.459.459,0,0,1,.326.137l5.109,5.109a.465.465,0,0,1,.051.583l-4.235,5.949a2.317,2.317,0,0,0-.1,2.52,27.446,27.446,0,0,1,2.983,7.184,2.276,2.276,0,0,0,1.852,1.7l7.2,1.217a.444.444,0,0,1,.377.446v7.218Z" transform="translate(0 -0.001)"/>
      <path id="Path_26" data-name="Path 26" class="cls-1" d="M153.81,136a17.711,17.711,0,1,0,17.71,17.711A17.722,17.722,0,0,0,153.81,136Zm0,30.792a13.081,13.081,0,1,1,13.081-13.081A13.09,13.09,0,0,1,153.81,166.793Z" transform="translate(-112.766 -112.684)"/>
    </g>
  </g>
</svg>
