<svg xmlns="http://www.w3.org/2000/svg" viewBox="0 0 81.322 62.555">
  <defs>
    <style>
      .cls-1 {
        fill: #fff;
      }
    </style>
  </defs>
  <path id="sofa" class="cls-1" d="M75.022,18.838V8.475C75.022,3.909,71.7.1,67.622.1H13.666c-4.081.019-7.4,3.827-7.4,8.392V18.857C2.659,19.481,0,22.948,0,27.041V53.866a1.881,1.881,0,0,0,1.693,1.971H3.9v4.831a1.927,1.927,0,0,0,1.744,1.989h11.5a1.886,1.886,0,0,0,1.677-1.989v-4.85H62.507v4.831a1.873,1.873,0,0,0,1.676,1.989h11.5a1.926,1.926,0,0,0,1.744-1.989V55.817h2.2a1.88,1.88,0,0,0,1.694-1.97V27.022C81.288,22.93,78.629,19.463,75.022,18.838ZM9.653,8.493c0-2.463,1.8-4.584,4.013-4.584H67.638c2.2,0,4.014,2.1,4.014,4.584V19.159a8.1,8.1,0,0,0-5.08,7.881v4.168H14.733V27.041a8.118,8.118,0,0,0-5.08-7.881Zm56.9,26.485v4.168H14.733V34.978ZM15.411,58.849H7.282V55.817h8.129Zm58.6,0H65.877V55.817h8.129Zm3.9-6.82H3.387V27.022a4.231,4.231,0,0,1,3.98-4.452,4.231,4.231,0,0,1,3.98,4.452V41.1a1.8,1.8,0,0,0,1.744,1.837H68.2A1.8,1.8,0,0,0,69.942,41.1V27.022a4,4,0,1,1,7.959,0Zm0,0" transform="translate(0 -0.102)"/>
</svg>
