<svg id="washing-machine" xmlns="http://www.w3.org/2000/svg" viewBox="0 0 67.197 77.072">
  <defs>
    <style>
      .cls-1 {
        fill: #fff;
      }
    </style>
  </defs>
  <path id="Path_16" data-name="Path 16" class="cls-1" d="M305.461,40C302.45,40,300,42.026,300,44.516s2.45,4.516,5.461,4.516,5.461-2.026,5.461-4.516S308.472,40,305.461,40Zm0,6.021a1.533,1.533,0,1,1,1.82-1.505A1.687,1.687,0,0,1,305.461,46.021Zm0,0" transform="translate(-251.006 -33.979)"/>
  <path id="Path_17" data-name="Path 17" class="cls-1" d="M212.742,40H201.82a1.533,1.533,0,1,0,0,3.011h10.922a1.533,1.533,0,1,0,0-3.011Zm0,0" transform="translate(-167.103 -33.979)"/>
  <path id="Path_18" data-name="Path 18" class="cls-1" d="M212.742,80H201.82a1.533,1.533,0,1,0,0,3.011h10.922a1.533,1.533,0,1,0,0-3.011Zm0,0" transform="translate(-167.103 -67.958)"/>
  <path id="Path_19" data-name="Path 19" class="cls-1" d="M45.461,49.032c3.011,0,5.461-2.026,5.461-4.516S48.472,40,45.461,40,40,42.026,40,44.516,42.45,49.032,45.461,49.032Zm0-6.021a1.533,1.533,0,1,1-1.82,1.505A1.687,1.687,0,0,1,45.461,43.011Zm0,0" transform="translate(-32.719 -33.979)"/>
  <path id="Path_20" data-name="Path 20" class="cls-1" d="M111.713,205.569c0-10.791-9.356-19.569-20.856-19.569S70,194.778,70,205.569s9.356,19.569,20.856,19.569S111.713,216.36,111.713,205.569Zm-38.5,0c0-9.13,7.917-16.558,17.648-16.558s17.648,7.428,17.648,16.558-7.917,16.558-17.648,16.558S73.209,214.7,73.209,205.569Zm0,0" transform="translate(-57.258 -158.001)"/>
  <path id="Path_21" data-name="Path 21" class="cls-1" d="M142.765,239.548c0-7.566-7.485-13.548-16.383-13.548C117.349,226,110,232.078,110,239.548s7.349,13.548,16.383,13.548C135.3,253.1,142.765,247.1,142.765,239.548Zm-4.812-4.41a8.882,8.882,0,0,1,0,8.819c-2.444-.448-4.289-2.267-4.289-4.41S135.509,235.586,137.953,235.138Zm-24.312,4.41c0-5.81,5.716-10.537,12.742-10.537a14.1,14.1,0,0,1,9.487,3.514c-3.409,1.093-5.846,3.845-5.846,7.023s2.438,5.93,5.846,7.023a14.1,14.1,0,0,1-9.487,3.514C119.357,250.085,113.641,245.358,113.641,239.548Zm0,0" transform="translate(-92.784 -191.98)"/>
  <path id="Path_22" data-name="Path 22" class="cls-1" d="M3.641,307.505a1.685,1.685,0,0,1-1.82,1.505,1.533,1.533,0,1,1,0-3.011A1.685,1.685,0,0,1,3.641,307.505Zm0,0" transform="translate(0 -259.938)"/>
  <path id="Path_23" data-name="Path 23" class="cls-1" d="M62.157,0H5.04A4.8,4.8,0,0,0,0,4.516V41.547a1.6,1.6,0,0,0,1.68,1.505,1.6,1.6,0,0,0,1.68-1.505V21.074H63.837V72.556a1.6,1.6,0,0,1-1.68,1.505H5.04a1.6,1.6,0,0,1-1.68-1.505V53.589a1.6,1.6,0,0,0-1.68-1.505A1.6,1.6,0,0,0,0,53.589V72.556a4.8,4.8,0,0,0,5.04,4.516H62.157a4.8,4.8,0,0,0,5.04-4.516V4.516A4.8,4.8,0,0,0,62.157,0ZM26.879,18.064H3.36V4.516A1.6,1.6,0,0,1,5.04,3.011H26.879Zm36.958,0h-33.6V3.011H62.157a1.6,1.6,0,0,1,1.68,1.505Zm0,0"/>
</svg>
